<svg width="40" height="40" viewBox="0 0 40 40" fill="none" xmlns="http://www.w3.org/2000/svg">
<path d="M19.2231 0C29.8397 0 38.4462 8.41638 38.4462 18.7985C38.4462 23.6981 36.5294 28.1599 33.3892 31.5059L39.565 37.5272C40.1439 38.0919 40.1451 39.0085 39.5677 39.5746C39.0428 40.0893 38.2205 40.1371 37.6403 39.7173L37.4741 39.5773L31.2254 33.4835C27.9363 36.0577 23.7635 37.597 19.2231 37.597C8.60647 37.597 0 29.1807 0 18.7985C0 8.41638 8.60647 0 19.2231 0ZM19.2231 2.89548C10.2417 2.89548 2.96087 10.0155 2.96087 18.7985C2.96087 27.5815 10.2417 34.7016 19.2231 34.7016C28.2045 34.7016 35.4853 27.5815 35.4853 18.7985C35.4853 10.0155 28.2045 2.89548 19.2231 2.89548Z" fill="#E2F4F9"/>
</svg>
