<svg width="29" height="35" viewBox="0 0 29 35" fill="none" xmlns="http://www.w3.org/2000/svg">
<path d="M6.27586 0.00300149L6.31323 0.00598968C7.0487 0.0814983 7.68748 0.534235 8.27059 1.23996C9.37872 2.58058 11.7582 6.49268 11.9379 7.55733C12.1367 8.74505 11.9241 9.51646 11.2904 10.8811L11.1368 11.2174C10.846 11.8753 10.8015 12.147 10.8916 12.458C12.2753 16.6528 14.6365 19.5772 17.9842 21.2709C18.3012 21.4131 18.5406 21.3316 19.2106 20.8555L19.5602 20.6105C20.5022 19.9705 21.0992 19.7683 21.9795 19.9954C22.836 20.2177 25.9961 23.1671 27.0767 24.538C27.6456 25.2596 28.0119 26.0522 28.0757 27.0233C28.143 29.3834 25.8181 32.7065 24.3998 33.7058C22.7869 35.1348 20.7402 35.1112 18.4452 33.7881C12.4439 30.6947 3.26397 19.3962 0.817583 11.9715L0.671138 11.5562C-0.257788 8.80604 -0.23766 6.43006 0.826846 4.6388C1.79817 2.64628 4.41702 -0.103488 6.27586 0.00300149ZM6.15872 2.54409L6.03864 2.55365C5.08458 2.71064 3.17135 4.75095 2.5342 6.04868L2.42413 6.25158C1.87525 7.35934 1.93886 8.88062 2.70305 10.9636L2.84909 11.3871C5.3136 18.2385 13.8467 28.6618 19.2727 31.4597L19.5715 31.6243C21.1414 32.4486 22.3298 32.412 23.2919 31.5669L23.363 31.5102C23.6607 31.254 24.3473 30.4813 24.8761 29.7254C25.6189 28.6638 26.0396 27.691 26.026 27.1732C26.0112 26.9517 25.8732 26.6531 25.6074 26.316C24.8041 25.2969 21.8825 22.5701 21.5596 22.4862C21.2542 22.4075 21.0036 22.5133 20.3183 23.0017L19.9736 23.2416C18.9639 23.916 18.2521 24.0973 17.2465 23.6451C13.3494 21.6748 10.5827 18.2482 8.97526 13.3722C8.5945 12.0685 8.79947 11.1461 9.4616 9.71665L9.61935 9.37284C9.92015 8.70008 9.98381 8.41465 9.92713 8.07606C9.85927 7.6739 7.6593 4.057 6.8355 3.06036C6.5627 2.7302 6.32301 2.56032 6.14361 2.5419L6.15872 2.54409Z" fill="#096A80" fill-opacity="0.83"/>
<path d="M6.27586 0.00300149L6.31323 0.00598968C7.0487 0.0814983 7.68748 0.534235 8.27059 1.23996C9.37872 2.58058 11.7582 6.49268 11.9379 7.55733C12.1367 8.74505 11.9241 9.51646 11.2904 10.8811L11.1368 11.2174C10.846 11.8753 10.8015 12.147 10.8916 12.458C12.2753 16.6528 14.6365 19.5772 17.9842 21.2709C18.3012 21.4131 18.5406 21.3316 19.2106 20.8555L19.5602 20.6105C20.5022 19.9705 21.0992 19.7683 21.9795 19.9954C22.836 20.2177 25.9961 23.1671 27.0767 24.538C27.6456 25.2596 28.0119 26.0522 28.0757 27.0233C28.143 29.3834 25.8181 32.7065 24.3998 33.7058C22.7869 35.1348 20.7402 35.1112 18.4452 33.7881C12.4439 30.6947 3.26397 19.3962 0.817583 11.9715L0.671138 11.5562C-0.257788 8.80604 -0.23766 6.43006 0.826846 4.6388C1.79817 2.64628 4.41702 -0.103488 6.27586 0.00300149ZM6.15872 2.54409L6.03864 2.55365C5.08458 2.71064 3.17135 4.75095 2.5342 6.04868L2.42413 6.25158C1.87525 7.35934 1.93886 8.88062 2.70305 10.9636L2.84909 11.3871C5.3136 18.2385 13.8467 28.6618 19.2727 31.4597L19.5715 31.6243C21.1414 32.4486 22.3298 32.412 23.2919 31.5669L23.363 31.5102C23.6607 31.254 24.3473 30.4813 24.8761 29.7254C25.6189 28.6638 26.0396 27.691 26.026 27.1732C26.0112 26.9517 25.8732 26.6531 25.6074 26.316C24.8041 25.2969 21.8825 22.5701 21.5596 22.4862C21.2542 22.4075 21.0036 22.5133 20.3183 23.0017L19.9736 23.2416C18.9639 23.916 18.2521 24.0973 17.2465 23.6451C13.3494 21.6748 10.5827 18.2482 8.97526 13.3722C8.5945 12.0685 8.79947 11.1461 9.4616 9.71665L9.61935 9.37284C9.92015 8.70008 9.98381 8.41465 9.92713 8.07606C9.85927 7.6739 7.6593 4.057 6.8355 3.06036C6.5627 2.7302 6.32301 2.56032 6.14361 2.5419L6.15872 2.54409Z" stroke="#096A80"/>
</svg>
