<svg width="37" height="43" viewBox="0 0 37 43" fill="none" xmlns="http://www.w3.org/2000/svg">
<g filter="url(#filter0_d)">
<path d="M24.5545 0C26.6799 0.0329451 28.7028 1.27125 30.1521 3.4266C31.6014 5.58195 32.3506 8.46621 32.2271 11.3205L32.2252 23.3714C32.3506 26.3129 31.6014 29.1972 30.1521 31.3525C28.7028 33.5079 26.6799 34.7462 24.5427 34.7791H11.8228C7.37322 34.7791 4.16309 29.8298 4.16309 23.4586V11.3205C4.16309 4.94928 7.37322 0 11.8228 0H24.5545ZM24.5308 2.95309H11.8228C8.60319 2.95309 6.29335 6.51442 6.29335 11.3205V23.4586C6.29335 28.2647 8.60319 31.826 11.8228 31.826H24.5308C26.0735 31.8022 27.5419 30.9033 28.5939 29.3388C29.6458 27.7743 30.1897 25.6808 30.0968 23.4586L30.0986 11.2334C30.1897 9.09835 29.6458 7.00476 28.5939 5.44027C27.5419 3.87578 26.0735 2.97694 24.5308 2.95309ZM26.6585 10.8943C26.9927 11.4731 26.9617 12.2937 26.6083 12.821L26.4926 12.9698L20.727 19.3674C19.3266 20.8805 17.3918 20.9561 15.9317 19.5875L15.7052 19.3594L9.90102 12.9736C9.44024 12.4667 9.36315 11.5379 9.72883 10.8991C10.0613 10.3184 10.6452 10.1773 11.0948 10.5373L11.2253 10.6604L17.0222 17.0381C17.6721 17.7404 18.5631 17.7944 19.2416 17.2095L19.4066 17.05L25.1614 10.6642C25.6206 10.1546 26.2909 10.2576 26.6585 10.8943Z" fill="#096A80" fill-opacity="0.83"/>
</g>
<defs>
<filter id="filter0_d" x="0.163086" y="0" width="36.0772" height="42.7791" filterUnits="userSpaceOnUse" color-interpolation-filters="sRGB">
<feFlood flood-opacity="0" result="BackgroundImageFix"/>
<feColorMatrix in="SourceAlpha" type="matrix" values="0 0 0 0 0 0 0 0 0 0 0 0 0 0 0 0 0 0 127 0"/>
<feOffset dy="4"/>
<feGaussianBlur stdDeviation="2"/>
<feColorMatrix type="matrix" values="0 0 0 0 0 0 0 0 0 0 0 0 0 0 0 0 0 0 0.25 0"/>
<feBlend mode="normal" in2="BackgroundImageFix" result="effect1_dropShadow"/>
<feBlend mode="normal" in="SourceGraphic" in2="effect1_dropShadow" result="shape"/>
</filter>
</defs>
</svg>
